<svg width="394" height="35" viewBox="0 0 394 35" fill="none" xmlns="http://www.w3.org/2000/svg">
<path d="M0.7 28V2.8H6.568L16.972 19.936H13.876L24.064 2.8H29.932L30.004 28H23.416L23.38 12.772H24.496L16.9 25.516H13.732L5.92 12.772H7.252V28H0.7ZM44.5801 28.324C42.4441 28.324 40.5481 27.892 38.8921 27.028C37.2361 26.164 35.9281 24.976 34.9681 23.464C34.0321 21.928 33.5641 20.176 33.5641 18.208C33.5641 16.24 34.0321 14.5 34.9681 12.988C35.9281 11.476 37.2361 10.3 38.8921 9.46C40.5481 8.596 42.4441 8.164 44.5801 8.164C46.7161 8.164 48.6121 8.596 50.2681 9.46C51.9481 10.3 53.2561 11.476 54.1921 12.988C55.1281 14.5 55.5961 16.24 55.5961 18.208C55.5961 20.176 55.1281 21.928 54.1921 23.464C53.2561 24.976 51.9481 26.164 50.2681 27.028C48.6121 27.892 46.7161 28.324 44.5801 28.324ZM44.5801 22.888C45.3721 22.888 46.0681 22.708 46.6681 22.348C47.2921 21.988 47.7841 21.46 48.1441 20.764C48.5041 20.044 48.6841 19.192 48.6841 18.208C48.6841 17.224 48.5041 16.396 48.1441 15.724C47.7841 15.028 47.2921 14.5 46.6681 14.14C46.0681 13.78 45.3721 13.6 44.5801 13.6C43.8121 13.6 43.1161 13.78 42.4921 14.14C41.8921 14.5 41.4001 15.028 41.0161 15.724C40.6561 16.396 40.4761 17.224 40.4761 18.208C40.4761 19.192 40.6561 20.044 41.0161 20.764C41.4001 21.46 41.8921 21.988 42.4921 22.348C43.1161 22.708 43.8121 22.888 44.5801 22.888ZM68.956 28.504C67.372 28.504 65.896 28.276 64.528 27.82C63.184 27.364 62.008 26.644 61 25.66C60.016 24.676 59.236 23.392 58.66 21.808C58.108 20.224 57.832 18.304 57.832 16.048C57.832 14.536 57.964 13.144 58.228 11.872C58.492 10.6 58.888 9.436 59.416 8.38C59.968 7.3 60.664 6.352 61.504 5.536C62.368 4.72 63.376 4.036 64.528 3.484C65.68 2.932 67 2.512 68.488 2.224L77.956 0.423999L78.892 6.148L70.684 7.696C70.18 7.792 69.628 7.912 69.028 8.056C68.452 8.2 67.888 8.416 67.336 8.704C66.784 8.968 66.268 9.34 65.788 9.82C65.332 10.3 64.96 10.936 64.672 11.728C64.408 12.496 64.276 13.456 64.276 14.608C64.276 14.944 64.288 15.22 64.312 15.436C64.36 15.628 64.396 15.856 64.42 16.12C64.444 16.36 64.456 16.732 64.456 17.236L62.548 15.472C63.124 14.464 63.808 13.612 64.6 12.916C65.416 12.22 66.352 11.68 67.408 11.296C68.464 10.912 69.64 10.72 70.936 10.72C72.832 10.72 74.464 11.092 75.832 11.836C77.2 12.556 78.244 13.564 78.964 14.86C79.708 16.132 80.08 17.584 80.08 19.216C80.08 21.136 79.6 22.792 78.64 24.184C77.68 25.552 76.36 26.62 74.68 27.388C73.024 28.132 71.116 28.504 68.956 28.504ZM69.136 23.32C69.928 23.32 70.612 23.152 71.188 22.816C71.788 22.48 72.256 22.012 72.592 21.412C72.928 20.812 73.096 20.14 73.096 19.396C73.096 18.628 72.928 17.968 72.592 17.416C72.256 16.864 71.788 16.432 71.188 16.12C70.612 15.808 69.928 15.652 69.136 15.652C68.344 15.652 67.636 15.808 67.012 16.12C66.412 16.432 65.944 16.852 65.608 17.38C65.272 17.908 65.104 18.544 65.104 19.288C65.104 20.032 65.272 20.716 65.608 21.34C65.944 21.964 66.412 22.456 67.012 22.816C67.636 23.152 68.344 23.32 69.136 23.32ZM83.2376 28V8.488H90.0416V18.712L98.2136 8.488H104.514V28H97.6736V17.74L89.5736 28H83.2376ZM107.133 28L107.421 22.42C107.589 22.444 107.745 22.468 107.889 22.492C108.033 22.492 108.165 22.492 108.285 22.492C108.885 22.492 109.353 22.348 109.689 22.06C110.049 21.748 110.313 21.328 110.481 20.8C110.673 20.272 110.805 19.66 110.877 18.964C110.973 18.244 111.033 17.464 111.057 16.624L111.345 8.488H128.985V28H122.145V12.376L123.657 13.924H115.845L117.285 12.304L117.069 16.912C116.997 18.664 116.841 20.26 116.601 21.7C116.385 23.116 116.037 24.328 115.557 25.336C115.077 26.344 114.417 27.124 113.577 27.676C112.761 28.204 111.717 28.468 110.445 28.468C109.989 28.468 109.473 28.42 108.897 28.324C108.345 28.252 107.757 28.144 107.133 28ZM145.029 14.536C147.621 14.56 149.601 15.136 150.969 16.264C152.337 17.392 153.021 19 153.021 21.088C153.021 23.248 152.229 24.952 150.645 26.2C149.085 27.424 146.925 28.024 144.165 28H133.581V8.488H140.385V14.536H145.029ZM143.481 23.32C144.297 23.32 144.933 23.128 145.389 22.744C145.845 22.36 146.073 21.772 146.073 20.98C146.073 20.164 145.845 19.588 145.389 19.252C144.957 18.916 144.321 18.736 143.481 18.712H140.385V23.284L143.481 23.32ZM155.941 28V8.488H162.745V15.724H169.765V8.488H176.605V28H169.765V21.16H162.745V28H155.941ZM192.774 28V24.364L192.306 23.464V16.768C192.306 15.688 191.97 14.86 191.298 14.284C190.65 13.684 189.606 13.384 188.166 13.384C187.23 13.384 186.282 13.54 185.322 13.852C184.362 14.14 183.546 14.548 182.874 15.076L180.57 10.432C181.674 9.712 182.994 9.16 184.53 8.776C186.09 8.368 187.638 8.164 189.174 8.164C192.342 8.164 194.79 8.896 196.518 10.36C198.27 11.8 199.146 14.068 199.146 17.164V28H192.774ZM187.014 28.324C185.454 28.324 184.134 28.06 183.054 27.532C181.974 27.004 181.146 26.284 180.57 25.372C180.018 24.46 179.742 23.44 179.742 22.312C179.742 21.112 180.042 20.08 180.642 19.216C181.266 18.328 182.214 17.656 183.486 17.2C184.758 16.72 186.402 16.48 188.418 16.48H193.026V20.044H189.354C188.25 20.044 187.47 20.224 187.014 20.584C186.582 20.944 186.366 21.424 186.366 22.024C186.366 22.624 186.594 23.104 187.05 23.464C187.506 23.824 188.13 24.004 188.922 24.004C189.666 24.004 190.338 23.824 190.938 23.464C191.562 23.08 192.018 22.504 192.306 21.736L193.242 24.256C192.882 25.6 192.174 26.62 191.118 27.316C190.086 27.988 188.718 28.324 187.014 28.324ZM215.537 28V21.664L216.437 22.708H211.469C208.565 22.708 206.273 22.12 204.593 20.944C202.913 19.744 202.073 18.04 202.073 15.832C202.073 13.48 202.949 11.668 204.701 10.396C206.453 9.124 208.817 8.488 211.793 8.488H221.621V28H215.537ZM201.749 28L206.897 20.584H213.809L208.985 28H201.749ZM215.537 19.612V12.196L216.437 13.888H211.937C211.025 13.888 210.317 14.068 209.813 14.428C209.309 14.764 209.057 15.316 209.057 16.084C209.057 17.572 210.005 18.316 211.901 18.316H216.437L215.537 19.612ZM234.715 28L235.003 22.42C235.171 22.444 235.327 22.468 235.471 22.492C235.615 22.492 235.747 22.492 235.867 22.492C236.467 22.492 236.935 22.348 237.271 22.06C237.631 21.748 237.895 21.328 238.063 20.8C238.255 20.272 238.387 19.66 238.459 18.964C238.555 18.244 238.615 17.464 238.639 16.624L238.927 8.488H256.567V28H249.727V12.376L251.239 13.924H243.427L244.867 12.304L244.651 16.912C244.579 18.664 244.423 20.26 244.183 21.7C243.967 23.116 243.619 24.328 243.139 25.336C242.659 26.344 241.999 27.124 241.159 27.676C240.343 28.204 239.299 28.468 238.027 28.468C237.571 28.468 237.055 28.42 236.479 28.324C235.927 28.252 235.339 28.144 234.715 28ZM270.775 28.324C268.639 28.324 266.743 27.892 265.087 27.028C263.431 26.164 262.123 24.976 261.163 23.464C260.227 21.928 259.759 20.176 259.759 18.208C259.759 16.24 260.227 14.5 261.163 12.988C262.123 11.476 263.431 10.3 265.087 9.46C266.743 8.596 268.639 8.164 270.775 8.164C272.911 8.164 274.807 8.596 276.463 9.46C278.143 10.3 279.451 11.476 280.387 12.988C281.323 14.5 281.791 16.24 281.791 18.208C281.791 20.176 281.323 21.928 280.387 23.464C279.451 24.976 278.143 26.164 276.463 27.028C274.807 27.892 272.911 28.324 270.775 28.324ZM270.775 22.888C271.567 22.888 272.263 22.708 272.863 22.348C273.487 21.988 273.979 21.46 274.339 20.764C274.699 20.044 274.879 19.192 274.879 18.208C274.879 17.224 274.699 16.396 274.339 15.724C273.979 15.028 273.487 14.5 272.863 14.14C272.263 13.78 271.567 13.6 270.775 13.6C270.007 13.6 269.311 13.78 268.687 14.14C268.087 14.5 267.595 15.028 267.211 15.724C266.851 16.396 266.671 17.224 266.671 18.208C266.671 19.192 266.851 20.044 267.211 20.764C267.595 21.46 268.087 21.988 268.687 22.348C269.311 22.708 270.007 22.888 270.775 22.888ZM288.652 28V12.412L290.128 13.924H282.352V8.488H301.72V13.924H293.944L295.456 12.412V28H288.652ZM313.641 28.324C311.337 28.324 309.321 27.892 307.593 27.028C305.889 26.14 304.557 24.94 303.597 23.428C302.661 21.892 302.193 20.152 302.193 18.208C302.193 16.264 302.649 14.536 303.561 13.024C304.497 11.488 305.781 10.3 307.413 9.46C309.045 8.596 310.881 8.164 312.921 8.164C314.841 8.164 316.593 8.56 318.177 9.352C319.761 10.12 321.021 11.26 321.957 12.772C322.893 14.284 323.361 16.12 323.361 18.28C323.361 18.52 323.349 18.796 323.325 19.108C323.301 19.42 323.277 19.708 323.253 19.972H307.809V16.372H319.617L317.025 17.38C317.049 16.492 316.881 15.724 316.521 15.076C316.185 14.428 315.705 13.924 315.081 13.564C314.481 13.204 313.773 13.024 312.957 13.024C312.141 13.024 311.421 13.204 310.797 13.564C310.197 13.924 309.729 14.44 309.393 15.112C309.057 15.76 308.889 16.528 308.889 17.416V18.46C308.889 19.42 309.081 20.248 309.465 20.944C309.873 21.64 310.449 22.18 311.193 22.564C311.937 22.924 312.825 23.104 313.857 23.104C314.817 23.104 315.633 22.972 316.305 22.708C317.001 22.42 317.685 21.988 318.357 21.412L321.957 25.156C321.021 26.188 319.869 26.98 318.501 27.532C317.133 28.06 315.513 28.324 313.641 28.324ZM339.252 28.324C337.596 28.324 336.18 27.964 335.004 27.244C333.828 26.5 332.928 25.396 332.304 23.932C331.704 22.444 331.404 20.548 331.404 18.244C331.404 15.916 331.692 14.02 332.268 12.556C332.844 11.068 333.708 9.964 334.86 9.244C336.036 8.524 337.5 8.164 339.252 8.164C341.028 8.164 342.636 8.584 344.076 9.424C345.54 10.24 346.692 11.404 347.532 12.916C348.396 14.404 348.828 16.18 348.828 18.244C348.828 20.308 348.396 22.096 347.532 23.608C346.692 25.12 345.54 26.284 344.076 27.1C342.636 27.916 341.028 28.324 339.252 28.324ZM326.976 34.984V8.488H333.492V11.8L333.456 18.244L333.816 24.724V34.984H326.976ZM337.812 22.888C338.58 22.888 339.264 22.708 339.864 22.348C340.488 21.988 340.98 21.46 341.34 20.764C341.724 20.068 341.916 19.228 341.916 18.244C341.916 17.26 341.724 16.42 341.34 15.724C340.98 15.028 340.488 14.5 339.864 14.14C339.264 13.78 338.58 13.6 337.812 13.6C337.044 13.6 336.348 13.78 335.724 14.14C335.124 14.5 334.632 15.028 334.248 15.724C333.888 16.42 333.708 17.26 333.708 18.244C333.708 19.228 333.888 20.068 334.248 20.764C334.632 21.46 335.124 21.988 335.724 22.348C336.348 22.708 337.044 22.888 337.812 22.888ZM362.157 28.324C359.853 28.324 357.837 27.892 356.109 27.028C354.405 26.14 353.073 24.94 352.113 23.428C351.177 21.892 350.709 20.152 350.709 18.208C350.709 16.264 351.165 14.536 352.077 13.024C353.013 11.488 354.297 10.3 355.929 9.46C357.561 8.596 359.397 8.164 361.437 8.164C363.357 8.164 365.109 8.56 366.693 9.352C368.277 10.12 369.537 11.26 370.473 12.772C371.409 14.284 371.877 16.12 371.877 18.28C371.877 18.52 371.865 18.796 371.841 19.108C371.817 19.42 371.793 19.708 371.769 19.972H356.325V16.372H368.133L365.541 17.38C365.565 16.492 365.397 15.724 365.037 15.076C364.701 14.428 364.221 13.924 363.597 13.564C362.997 13.204 362.289 13.024 361.473 13.024C360.657 13.024 359.937 13.204 359.313 13.564C358.713 13.924 358.245 14.44 357.909 15.112C357.573 15.76 357.405 16.528 357.405 17.416V18.46C357.405 19.42 357.597 20.248 357.981 20.944C358.389 21.64 358.965 22.18 359.709 22.564C360.453 22.924 361.341 23.104 362.373 23.104C363.333 23.104 364.149 22.972 364.821 22.708C365.517 22.42 366.201 21.988 366.873 21.412L370.473 25.156C369.537 26.188 368.385 26.98 367.017 27.532C365.649 28.06 364.029 28.324 362.157 28.324ZM387.24 28V21.664L388.14 22.708H383.172C380.268 22.708 377.976 22.12 376.296 20.944C374.616 19.744 373.776 18.04 373.776 15.832C373.776 13.48 374.652 11.668 376.404 10.396C378.156 9.124 380.52 8.488 383.496 8.488H393.324V28H387.24ZM373.452 28L378.6 20.584H385.512L380.688 28H373.452ZM387.24 19.612V12.196L388.14 13.888H383.64C382.728 13.888 382.02 14.068 381.516 14.428C381.012 14.764 380.76 15.316 380.76 16.084C380.76 17.572 381.708 18.316 383.604 18.316H388.14L387.24 19.612Z" fill="white"/>
</svg>
