<svg width="59" height="464" viewBox="0 0 59 464" fill="none" xmlns="http://www.w3.org/2000/svg">
<path d="M2.37018 99.252L3.36324 99.3695L2.37018 99.252ZM12.5202 144.156L13.3662 143.623L12.5202 144.156ZM47.0649 198.96L46.2189 199.493L47.0649 198.96ZM52.5606 261.868L53.4862 262.247L52.5606 261.868ZM33.3744 308.791L34.3 309.169L33.3744 308.791ZM48.6257 430.173L49.559 430.532L48.6257 430.173ZM35.0862 463.406C35.3105 463.911 35.9015 464.138 36.4061 463.914L44.6304 460.259C45.1351 460.034 45.3624 459.443 45.1381 458.939C44.9138 458.434 44.3229 458.207 43.8182 458.431L36.5077 461.68L33.2586 454.37C33.0343 453.865 32.4433 453.638 31.9386 453.862C31.4339 454.086 31.2066 454.677 31.4309 455.182L35.0862 463.406ZM40.7546 370.101L41.5639 369.513L41.5639 369.513L40.7546 370.101ZM13.0069 0.882492L1.37711 99.1344L3.36324 99.3695L14.9931 1.11759L13.0069 0.882492ZM11.6743 144.689L46.2189 199.493L47.9109 198.427L13.3662 143.623L11.6743 144.689ZM51.635 261.49L32.4488 308.412L34.3 309.169L53.4862 262.247L51.635 261.49ZM47.6923 429.814L35.0667 462.641L36.9334 463.359L49.559 430.532L47.6923 429.814ZM39.9452 370.688C52.3726 387.814 55.2881 410.065 47.6923 429.814L49.559 430.532C57.398 410.151 54.3891 387.187 41.5639 369.513L39.9452 370.688ZM32.4488 308.412C24.0023 329.07 26.8379 352.626 39.9452 370.688L41.5639 369.513C28.8631 352.011 26.1155 329.186 34.3 309.169L32.4488 308.412ZM1.37711 99.1344C-0.506837 115.05 3.12798 131.131 11.6743 144.689L13.3662 143.623C5.06409 130.452 1.53313 114.831 3.36324 99.3695L1.37711 99.1344ZM46.2189 199.493C57.9295 218.072 59.9467 241.162 51.635 261.49L53.4862 262.247C62.0424 241.321 59.9659 217.552 47.9109 198.427L46.2189 199.493Z" fill="#FFE600"/>
</svg>
