<svg width="87" height="201" viewBox="0 0 87 201" fill="none" xmlns="http://www.w3.org/2000/svg">
<path d="M73.6184 85.9123L72.8573 86.561L73.6184 85.9123ZM72.5899 84.7056L73.351 84.0569L72.5899 84.7056ZM61.3244 44.0529L60.338 43.8885L61.3244 44.0529ZM69.3137 0.418727C68.9927 -0.0306831 68.3682 -0.13478 67.9188 0.186228L60.5952 5.41735C60.1457 5.73837 60.0416 6.36291 60.3626 6.81234C60.6837 7.26175 61.3082 7.36583 61.7576 7.04482L68.2675 2.39493L72.9174 8.90481C73.2384 9.35422 73.8629 9.45831 74.3124 9.13731C74.7618 8.8163 74.8659 8.19175 74.5449 7.74234L69.3137 0.418727ZM54.1602 172.042L54.6257 172.927L54.1602 172.042ZM75.6912 149.982L74.7951 149.538L75.6912 149.982ZM80.3689 140.538L81.265 140.982L80.3689 140.538ZM74.3795 85.2637L73.351 84.0569L71.8288 85.3542L72.8573 86.561L74.3795 85.2637ZM62.3108 44.2173L69.4864 1.16436L67.5136 0.835561L60.338 43.8885L62.3108 44.2173ZM1.46536 200.885L54.6257 172.927L53.6947 171.157L0.534404 199.115L1.46536 200.885ZM76.5873 150.425L81.265 140.982L79.4728 140.094L74.7951 149.538L76.5873 150.425ZM54.6257 172.927C64.1333 167.926 71.8193 160.052 76.5873 150.425L74.7951 149.538C70.214 158.786 62.8295 166.352 53.6947 171.157L54.6257 172.927ZM73.351 84.0569C63.9748 73.0555 59.9344 58.4755 62.3108 44.2173L60.338 43.8885C57.8647 58.7287 62.0699 73.9038 71.8288 85.3542L73.351 84.0569ZM72.8573 86.561C85.5695 101.477 88.1716 122.532 79.4728 140.094L81.265 140.982C90.3188 122.703 87.6106 100.788 74.3795 85.2637L72.8573 86.561Z" fill="#FFE600"/>
</svg>
