<svg width="153" height="106" viewBox="0 0 153 106" fill="none" xmlns="http://www.w3.org/2000/svg">
<path d="M38.38 13.5109L38.6936 12.5613L38.38 13.5109ZM118.822 22.5203L118.295 23.3703L118.822 22.5203ZM126.748 27.4306L127.274 26.5806L126.748 27.4306ZM148.782 86.276L149.738 86.5711L148.782 86.276ZM142.116 105.467C142.374 105.955 142.979 106.142 143.467 105.884L151.425 101.682C151.914 101.424 152.101 100.819 151.843 100.33C151.585 99.8419 150.98 99.6551 150.491 99.913L143.417 103.649L139.682 96.5746C139.424 96.0863 138.819 95.8994 138.33 96.1573C137.842 96.4152 137.655 97.0202 137.913 97.5086L142.116 105.467ZM148.718 55.7439L147.764 56.043L148.718 55.7439ZM72.027 14.946L71.7954 13.9732L72.027 14.946ZM0.186393 1.94951L38.0664 14.4604L38.6936 12.5613L0.81362 0.0504111L0.186393 1.94951ZM118.295 23.3703L126.221 28.2807L127.274 26.5806L119.349 21.6702L118.295 23.3703ZM147.827 85.981L142.045 104.705L143.956 105.295L149.738 86.5711L147.827 85.981ZM147.764 56.043C150.818 65.7855 150.84 76.2257 147.827 85.981L149.738 86.5711C152.87 76.4287 152.847 65.574 149.672 55.4448L147.764 56.043ZM126.221 28.2807C136.501 34.6498 144.147 44.5036 147.764 56.043L149.672 55.4448C145.912 43.4474 137.962 33.2024 127.274 26.5806L126.221 28.2807ZM38.0664 14.4604C49.1082 18.1073 60.9465 18.6122 72.2587 15.9188L71.7954 13.9732C60.844 16.5807 49.3833 16.0919 38.6936 12.5613L38.0664 14.4604ZM72.2587 15.9188C87.9843 12.1745 104.554 14.8565 118.295 23.3703L119.349 21.6702C105.155 12.8759 88.0391 10.1056 71.7954 13.9732L72.2587 15.9188Z" fill="#FFE600"/>
</svg>
